<svg preserveAspectRatio="none" width="100%" height="100%" overflow="visible" style="display: block;" viewBox="0 0 79.8866 23.023" fill="none" xmlns="http://www.w3.org/2000/svg">
<g id="Text (Pfad)">
<path d="M0 7.95571L3.13054 0.200065L4.35558 0.20121L7.46058 7.96268L5.86031 7.96118L3.46033 1.59096L4.01215 1.59147L1.56716 7.95717L0 7.95571ZM1.65681 6.51149L1.65798 5.25335L5.82973 5.25724L5.82855 6.51539L1.65681 6.51149Z" fill="var(--fill-0, white)"/>
<path d="M11.8955 7.96682L11.8983 4.90975C11.8986 4.59338 11.7995 4.33577 11.6011 4.13693C11.4026 3.93809 11.1452 3.83852 10.8288 3.83823C10.6228 3.83803 10.4388 3.88201 10.2769 3.97015C10.1149 4.05829 9.98604 4.18324 9.89024 4.34502C9.80179 4.5068 9.75747 4.69438 9.75727 4.90775L9.19469 4.62028C9.19508 4.2009 9.28371 3.83678 9.46058 3.52793C9.64482 3.21172 9.89521 2.96548 10.2117 2.78919C10.5356 2.61291 10.8999 2.52496 11.3046 2.52534C11.6945 2.52571 12.0439 2.62536 12.3528 2.8243C12.6616 3.01589 12.9042 3.26995 13.0805 3.58649C13.2567 3.89568 13.3447 4.23053 13.3444 4.59105L13.3412 7.96818L11.8955 7.96682ZM8.30865 7.96347L8.31364 2.63291L9.7594 2.63426L9.75442 7.96482L8.30865 7.96347Z" fill="var(--fill-0, white)"/>
<path d="M15.2247 7.96994L15.2318 0.421066L16.6776 0.422417L16.6705 7.97129L15.2247 7.96994ZM13.9814 3.90739L13.9826 2.63821L17.9226 2.64189L17.9214 3.91107L13.9814 3.90739Z" fill="var(--fill-0, white)"/>
<path d="M18.7307 7.97321L18.7357 2.64265L20.1925 2.64401L20.1875 7.97457L18.7307 7.97321ZM19.4649 1.7825C19.2294 1.78228 19.0345 1.70484 18.8802 1.55019C18.7258 1.38817 18.6487 1.18945 18.649 0.954005C18.6492 0.72592 18.7266 0.531017 18.8813 0.369295C19.0359 0.207573 19.231 0.126821 19.4664 0.127041C19.7092 0.127268 19.9041 0.208384 20.0511 0.370388C20.2055 0.532399 20.2825 0.727447 20.2823 0.955532C20.2821 1.19097 20.2047 1.38956 20.05 1.55128C19.9027 1.70565 19.7077 1.78272 19.4649 1.7825Z" fill="var(--fill-0, white)"/>
<path d="M23.7195 8.08824C23.2266 8.08778 22.7852 7.96597 22.3955 7.7228C22.0058 7.47964 21.6971 7.14826 21.4694 6.72866C21.249 6.30907 21.1391 5.83809 21.1396 5.3157C21.1401 4.78595 21.2509 4.31149 21.472 3.89232C21.7005 3.47315 22.0062 3.14234 22.389 2.8999C22.7792 2.65747 23.2244 2.53648 23.7247 2.53695C24.1073 2.53731 24.4494 2.61488 24.7509 2.76967C25.0598 2.92447 25.306 3.14175 25.4897 3.42151C25.6808 3.69392 25.7835 4.00303 25.7979 4.34885L25.7961 6.24711C25.7811 6.5929 25.6814 6.9055 25.4972 7.18492C25.313 7.46433 25.0663 7.68483 24.7572 7.84641C24.448 8.00799 24.1021 8.0886 23.7195 8.08824ZM23.9636 6.75307C24.2358 6.75332 24.4713 6.69468 24.6701 6.57714C24.8762 6.45226 25.0345 6.28318 25.1451 6.06992C25.263 5.8493 25.3221 5.59552 25.3224 5.30857C25.3227 5.02898 25.264 4.78245 25.1465 4.56897C25.0364 4.34814 24.8783 4.17877 24.6724 4.06085C24.4739 3.93559 24.2422 3.87283 23.9773 3.87259C23.7051 3.87233 23.4659 3.93465 23.2598 4.05953C23.061 4.18443 22.9027 4.3535 22.7847 4.56676C22.6742 4.78003 22.6188 5.02646 22.6185 5.30604C22.6182 5.59299 22.6732 5.84688 22.7833 6.06771C22.9009 6.28119 23.0626 6.45056 23.2685 6.57583C23.4744 6.69375 23.7061 6.75283 23.9636 6.75307ZM26.6774 7.98064L25.2427 7.9793L25.244 6.54457L25.477 5.2425L25.2354 3.96205L25.2391 0L26.6848 0.00135123L26.6774 7.98064Z" fill="var(--fill-0, white)"/>
<path d="M27.9564 7.98183L27.9614 2.65127L29.4182 2.65263L29.4132 7.9832L27.9564 7.98183ZM28.6906 1.79112C28.4551 1.7909 28.2602 1.71346 28.1059 1.55881C27.9515 1.3968 27.8744 1.19807 27.8747 0.962627C27.8749 0.734543 27.9523 0.539639 28.107 0.377917C28.2616 0.216195 28.4567 0.135444 28.6921 0.135664C28.9349 0.135891 29.1298 0.217006 29.2768 0.379011C29.4312 0.541021 29.5083 0.736069 29.508 0.964154C29.5078 1.1996 29.4304 1.39818 29.2757 1.5599C29.1284 1.71427 28.9334 1.79134 28.6906 1.79112Z" fill="var(--fill-0, white)"/>
<path d="M32.5258 8.10751C32.2242 8.10722 31.9262 8.06648 31.632 7.98527C31.3451 7.90407 31.0804 7.79346 30.8377 7.65344C30.595 7.50606 30.3855 7.32928 30.2091 7.1231L31.0708 6.25204C31.2545 6.45822 31.4678 6.61293 31.7105 6.71616C31.9532 6.81939 32.2217 6.87115 32.516 6.87142C32.7514 6.87164 32.928 6.8387 33.0458 6.77259C33.1709 6.70649 33.2336 6.60722 33.2337 6.47478C33.2338 6.32763 33.1677 6.21353 33.0354 6.13247C32.9104 6.05142 32.7449 5.98505 32.5389 5.93335C32.333 5.8743 32.116 5.81156 31.8879 5.74513C31.6673 5.67134 31.454 5.57918 31.2481 5.46862C31.0422 5.35071 30.8731 5.19236 30.7409 4.99358C30.616 4.78745 30.5537 4.52252 30.554 4.19879C30.5543 3.86034 30.6355 3.56611 30.7976 3.31611C30.9671 3.06611 31.2064 2.87135 31.5155 2.73185C31.8247 2.59234 32.1889 2.52279 32.6083 2.52318C33.0498 2.52359 33.447 2.60122 33.8 2.75606C34.1604 2.9109 34.4582 3.14295 34.6933 3.45218L33.8206 4.32324C33.659 4.12444 33.4752 3.98079 33.2692 3.89231C33.0707 3.80383 32.8536 3.75948 32.6182 3.75926C32.4048 3.75906 32.2393 3.79202 32.1215 3.85813C32.011 3.92424 31.9558 4.01616 31.9557 4.13388C31.9555 4.26632 32.018 4.36938 32.143 4.44307C32.2754 4.51677 32.4445 4.58315 32.6505 4.6422C32.8565 4.6939 33.0698 4.75664 33.2904 4.83042C33.5184 4.89685 33.7317 4.9927 33.9303 5.11796C34.1362 5.24323 34.3015 5.40893 34.4264 5.61506C34.5587 5.8212 34.6246 6.08613 34.6243 6.40987C34.6239 6.93225 34.4358 7.34778 34.0603 7.65645C33.6848 7.95776 33.1733 8.10811 32.5258 8.10751Z" fill="var(--fill-0, white)"/>
<path d="M38.997 7.99215L36.9357 5.24217L38.9909 2.66158L40.6574 2.66314L38.2488 5.57449L38.3046 4.86821L40.7628 7.9938L38.997 7.99215ZM35.5978 7.98898L35.6052 0.00968835L37.051 0.0110396L37.0435 7.99033L35.5978 7.98898Z" fill="var(--fill-0, white)"/>
<path d="M41.2561 7.99427L41.261 2.6637L42.7068 2.66505L42.7018 7.99562L41.2561 7.99427ZM42.7046 5.04891L42.1421 4.67315C42.2089 4.01838 42.4007 3.50353 42.7174 3.12859C43.0341 2.74629 43.4905 2.55542 44.0865 2.55598C44.344 2.55622 44.5757 2.60058 44.7816 2.68907C44.9876 2.77019 45.1751 2.90648 45.3441 3.09794L44.4381 4.13451C44.3573 4.04614 44.258 3.97983 44.1404 3.93558C44.03 3.89133 43.9013 3.86914 43.7541 3.869C43.4451 3.86871 43.1912 3.9678 42.9924 4.16627C42.8009 4.35739 42.705 4.6516 42.7046 5.04891Z" fill="var(--fill-0, white)"/>
<path d="M45.8474 7.99856L45.8523 2.66799L47.3091 2.66936L47.3042 7.99992L45.8474 7.99856ZM46.5816 1.80784C46.3461 1.80762 46.1512 1.73018 45.9968 1.57553C45.8425 1.41352 45.7654 1.21479 45.7656 0.979349C45.7658 0.751264 45.8433 0.55636 45.9979 0.394639C46.1526 0.232916 46.3477 0.152165 46.5831 0.152385C46.8259 0.152612 47.0208 0.233728 47.1678 0.395732C47.3222 0.557743 47.3992 0.75279 47.399 0.980875C47.3988 1.21632 47.3214 1.4149 47.1667 1.57662C47.0194 1.73099 46.8244 1.80807 46.5816 1.80784Z" fill="var(--fill-0, white)"/>
<path d="M48.5849 8.00111L48.5899 2.67055L50.0356 2.6719L50.0307 8.00247L48.5849 8.00111ZM52.0614 8.00436L52.0643 4.859C52.0646 4.54998 51.9655 4.31077 51.767 4.14136C51.5758 3.9646 51.3368 3.87608 51.0499 3.87582C50.8586 3.87564 50.6856 3.91594 50.531 3.99673C50.3765 4.07016 50.255 4.18041 50.1665 4.32748C50.0781 4.47455 50.0338 4.65109 50.0336 4.8571L49.471 4.58067C49.4714 4.16864 49.56 3.81188 49.7369 3.51039C49.9211 3.2089 50.1678 2.97737 50.477 2.81579C50.7861 2.64685 51.1357 2.56257 51.5257 2.56293C51.8935 2.56328 52.2282 2.6482 52.5297 2.81771C52.8312 2.97986 53.0701 3.21184 53.2464 3.51367C53.4227 3.80814 53.5107 4.16506 53.5103 4.58444L53.5071 8.00571L52.0614 8.00436ZM55.5378 8.00761L55.5407 4.86225C55.541 4.55323 55.4419 4.31402 55.2434 4.14461C55.0523 3.96785 54.8133 3.87933 54.5263 3.87907C54.3424 3.87889 54.1694 3.9192 54.0075 3.99998C53.8529 4.07341 53.7314 4.18366 53.643 4.33073C53.5546 4.4778 53.5102 4.65434 53.5101 4.86035L52.6825 4.66092C52.7123 4.23421 52.8267 3.86644 53.0257 3.55761C53.2246 3.24142 53.486 2.99886 53.8099 2.82994C54.1338 2.65366 54.4944 2.56571 54.8917 2.56608C55.2891 2.56645 55.6458 2.6514 55.962 2.82092C56.2783 2.98308 56.5282 3.21875 56.7118 3.52794C56.8955 3.83713 56.9871 4.2051 56.9867 4.63184L56.9836 8.00896L55.5378 8.00761Z" fill="var(--fill-0, white)"/>
<path d="M58.1555 8.01006L58.1605 2.6795L59.6173 2.68086L59.6123 8.01142L58.1555 8.01006ZM58.8897 1.81934C58.6542 1.81912 58.4593 1.74169 58.305 1.58703C58.1506 1.42502 58.0735 1.22629 58.0738 0.990852C58.074 0.762767 58.1514 0.567864 58.3061 0.406142C58.4607 0.24442 58.6558 0.163668 58.8912 0.163888C59.134 0.164115 59.3289 0.245231 59.4759 0.407235C59.6303 0.569246 59.7074 0.764294 59.7071 0.992379C59.7069 1.22782 59.6295 1.4264 59.4748 1.58813C59.3275 1.7425 59.1325 1.81957 58.8897 1.81934Z" fill="var(--fill-0, white)"/>
<path d="M64.4798 8.01597L64.4827 4.9589C64.483 4.64252 64.3839 4.38491 64.1854 4.18607C63.987 3.98723 63.7295 3.88767 63.4132 3.88737C63.2072 3.88718 63.0232 3.93115 62.8612 4.01929C62.6993 4.10743 62.5704 4.23239 62.4746 4.39417C62.3862 4.55595 62.3418 4.74353 62.3416 4.9569L61.7791 4.66943C61.7795 4.25004 61.8681 3.88593 62.045 3.57707C62.2292 3.26087 62.4796 3.01463 62.7961 2.83834C63.12 2.66206 63.4843 2.57411 63.889 2.57449C64.2789 2.57485 64.6283 2.67451 64.9371 2.87345C65.246 3.06504 65.4885 3.3191 65.6648 3.63564C65.8411 3.94482 65.9291 4.27967 65.9288 4.6402L65.9256 8.01732L64.4798 8.01597ZM60.893 8.01262L60.898 2.68206L62.3438 2.68341L62.3388 8.01397L60.893 8.01262Z" fill="var(--fill-0, white)"/>
<path d="M67.0902 8.01841L67.0952 2.68785L68.552 2.68921L68.547 8.01977L67.0902 8.01841ZM67.8244 1.82769C67.5889 1.82747 67.394 1.75004 67.2397 1.59538C67.0853 1.43337 67.0083 1.23464 67.0085 0.999202C67.0087 0.771118 67.0861 0.576214 67.2408 0.414492C67.3954 0.25277 67.5905 0.172019 67.8259 0.172239C68.0687 0.172466 68.2636 0.253581 68.4106 0.415586C68.565 0.577596 68.6421 0.772644 68.6419 1.00073C68.6416 1.23617 68.5642 1.43475 68.4095 1.59648C68.2622 1.75085 68.0672 1.82792 67.8244 1.82769Z" fill="var(--fill-0, white)"/>
<path d="M72.377 8.13371C71.8179 8.13319 71.3213 8.01501 70.8875 7.77916C70.4536 7.53595 70.1081 7.20454 69.851 6.78492C69.6012 6.3653 69.4766 5.88694 69.4771 5.34984C69.4776 4.82009 69.5994 4.34932 69.8426 3.93753C70.0931 3.51838 70.4319 3.1876 70.8589 2.9452C71.2858 2.69544 71.7605 2.57081 72.2829 2.5713C72.7979 2.57178 73.2503 2.68992 73.64 2.92573C74.0371 3.15418 74.3459 3.47085 74.5662 3.87572C74.7939 4.27324 74.9075 4.72584 74.9071 5.23351C74.907 5.32916 74.8995 5.42848 74.8847 5.53148C74.8773 5.62712 74.8588 5.73746 74.8292 5.86251L70.3485 5.86936L70.3495 4.7878L74.157 4.78032L73.5717 5.23227C73.5573 4.91588 73.4986 4.65095 73.3958 4.43748C73.3004 4.22402 73.1571 4.06202 72.9659 3.95148C72.782 3.83359 72.554 3.77451 72.2818 3.77426C71.9948 3.77399 71.7446 3.83998 71.5311 3.97221C71.3176 4.09709 71.1519 4.2772 71.034 4.51253C70.9234 4.74051 70.868 5.01269 70.8677 5.32907C70.8674 5.6528 70.926 5.93612 71.0435 6.17903C71.1683 6.41459 71.3447 6.59869 71.5727 6.73134C71.8007 6.85664 72.0655 6.91942 72.3671 6.9197C72.6394 6.91996 72.8859 6.87604 73.1067 6.78796C73.3275 6.69252 73.5189 6.5529 73.681 6.36911L74.53 7.21971C74.2722 7.52113 73.9556 7.74892 73.5802 7.90308C73.2122 8.05724 72.8111 8.13412 72.377 8.13371Z" fill="var(--fill-0, white)"/>
<path d="M75.7986 8.02655L75.8036 2.69599L77.2493 2.69734L77.2443 8.0279L75.7986 8.02655ZM77.2471 5.08119L76.6846 4.70543C76.7514 4.05067 76.9432 3.53582 77.2599 3.16088C77.5767 2.77858 78.033 2.58771 78.629 2.58826C78.8865 2.5885 79.1182 2.63287 79.3241 2.72135C79.5301 2.80248 79.7176 2.93877 79.8866 3.13022L78.9807 4.16679C78.8998 4.07843 78.8005 4.01212 78.6829 3.96786C78.5725 3.92361 78.4438 3.90142 78.2966 3.90128C77.9876 3.90099 77.7337 4.00008 77.5349 4.19855C77.3434 4.38967 77.2475 4.68388 77.2471 5.08119Z" fill="var(--fill-0, white)"/>
<path d="M2.68091 20.7604C2.21002 20.76 1.79073 20.6602 1.42304 20.4612C1.0627 20.2623 0.779696 19.9861 0.574014 19.6327C0.368332 19.2794 0.265708 18.8709 0.266141 18.4074L0.269029 15.3172L1.72583 15.3186L1.72297 18.3756C1.72276 18.5964 1.75937 18.7877 1.8328 18.9496C1.90623 19.1042 2.01648 19.222 2.16356 19.3031C2.31064 19.3842 2.4835 19.4248 2.68215 19.425C2.98382 19.4253 3.21934 19.3335 3.38874 19.1498C3.55814 18.966 3.64299 18.7085 3.6433 18.3774L3.64616 15.3204L5.09192 15.3217L5.08903 18.4119C5.08859 18.8828 4.9852 19.2947 4.77886 19.6477C4.57987 20.0007 4.29635 20.2763 3.92828 20.4746C3.56758 20.6656 3.15179 20.7608 2.68091 20.7604Z" fill="var(--fill-0, white)"/>
<path d="M9.82507 20.6567L9.82793 17.5996C9.82822 17.2833 9.72914 17.0257 9.53067 16.8268C9.3322 16.628 9.07478 16.5284 8.7584 16.5281C8.55239 16.5279 8.36841 16.5719 8.20646 16.66C8.04451 16.7482 7.91564 16.8731 7.81984 17.0349C7.73139 17.1967 7.68707 17.3843 7.68687 17.5976L7.12429 17.3102C7.12468 16.8908 7.21331 16.5267 7.39018 16.2178C7.57442 15.9016 7.8248 15.6554 8.14134 15.4791C8.46524 15.3028 8.82952 15.2149 9.23419 15.2152C9.62414 15.2156 9.97353 15.3152 10.2824 15.5142C10.5912 15.7058 10.8338 15.9598 11.0101 16.2764C11.1863 16.5856 11.2743 16.9204 11.274 17.2809L11.2708 20.6581L9.82507 20.6567ZM6.23825 20.6534L6.24323 15.3228L7.689 15.3242L7.68402 20.6547L6.23825 20.6534Z" fill="var(--fill-0, white)"/>
<path d="M14.6626 23.023C14.096 23.0225 13.5958 22.919 13.1619 22.7126C12.728 22.5135 12.3825 22.2299 12.1253 21.8618L13.0422 20.9467C13.2479 21.1897 13.4759 21.3738 13.7259 21.4991C13.9833 21.6318 14.2922 21.6983 14.6528 21.6986C15.1016 21.6991 15.4548 21.5854 15.7126 21.3575C15.9777 21.1297 16.1104 20.8134 16.1108 20.4088L16.112 19.0734L16.3559 17.9037L16.1252 16.7337L16.1266 15.332L17.5613 15.3334L17.5566 20.388C17.5561 20.9178 17.4306 21.3775 17.18 21.7672C16.9369 22.1643 16.5981 22.473 16.1638 22.6933C15.7295 22.9137 15.2291 23.0235 14.6626 23.023ZM14.5987 20.5177C14.1204 20.5173 13.6901 20.4028 13.3078 20.1744C12.9254 19.9386 12.624 19.6182 12.4037 19.2134C12.1907 18.8085 12.0844 18.3559 12.0849 17.8556C12.0854 17.3553 12.1925 16.9066 12.4062 16.5095C12.6273 16.1123 12.9292 15.7999 13.3121 15.5722C13.6949 15.3371 14.1254 15.2198 14.6036 15.2202C15.0009 15.2206 15.3504 15.2982 15.6519 15.453C15.9607 15.6078 16.2034 15.8214 16.3797 16.0938C16.556 16.3588 16.6514 16.6716 16.6657 17.0321L16.6642 18.7097C16.6491 19.0628 16.5495 19.3791 16.3653 19.6585C16.1885 19.9306 15.9455 20.1437 15.6363 20.2979C15.3345 20.4448 14.9886 20.5181 14.5987 20.5177ZM14.8869 19.2046C15.1517 19.2049 15.3799 19.1499 15.5713 19.0397C15.77 18.9222 15.9247 18.7642 16.0352 18.5656C16.1458 18.3597 16.2012 18.128 16.2014 17.8705C16.2017 17.6056 16.1467 17.3738 16.0365 17.175C15.9264 16.9763 15.772 16.8216 15.5734 16.7111C15.3823 16.5932 15.1542 16.5341 14.8894 16.5338C14.6245 16.5336 14.3927 16.5922 14.1939 16.7098C13.9951 16.82 13.8405 16.978 13.7299 17.1839C13.6194 17.3825 13.564 17.6105 13.5637 17.868C13.5635 18.1182 13.6185 18.3463 13.7287 18.5524C13.8388 18.7512 13.9932 18.9095 14.1917 19.0274C14.3903 19.1453 14.622 19.2044 14.8869 19.2046Z" fill="var(--fill-0, white)"/>
</g>
</svg>
